<svg width="58" height="54" viewBox="0 0 58 54" fill="none" xmlns="http://www.w3.org/2000/svg">
<path d="M36.4604 53.8501C37.202 53.9553 37.9533 53.7439 38.5308 53.2675C39.1087 52.7914 39.4598 52.0938 39.4978 51.3459C39.5354 50.5983 39.2577 49.8688 38.7311 49.3366C38.2041 48.804 37.478 48.5175 36.73 48.5473L9.65981 47.1559L56.6463 4.71575C57.2962 4.06234 57.5644 3.12063 57.3552 2.2233C57.1468 1.326 56.4906 0.599477 55.6188 0.300816C54.7473 0.00173528 53.7832 0.173014 53.0676 0.753761L6.08117 43.194L7.47852 16.1184C7.49776 15.4192 7.24709 14.74 6.77839 14.2211C6.30969 13.7022 5.65913 13.3836 4.9619 13.3321C4.25804 13.2952 3.56917 13.5398 3.04637 14.0121C2.52357 14.4843 2.20997 15.1451 2.17569 15.8488L0.471913 49.3627L0.471561 49.3623C0.422293 50.0689 0.662434 50.7653 1.13711 51.2908C1.61214 51.8167 2.28063 52.1263 2.98819 52.1485L36.4604 53.8501Z" fill="#FFEC87"/>
</svg>
