<svg width="26" height="39" viewBox="0 0 26 39" fill="none" xmlns="http://www.w3.org/2000/svg">
<path d="M23.5702 25.2507C23.5702 24.7825 23.4922 24.3143 23.4922 23.8462H21.1514C19.5128 23.8462 17.9523 23.2219 16.7819 22.2076C15.8455 21.4273 14.6751 20.9592 13.4267 20.9592C12.1783 20.9592 11.0079 21.4273 10.0715 22.2076C9.44733 22.7538 8.74509 23.1439 8.04285 23.456C7.26258 23.7681 6.48231 23.8462 5.70204 23.8462H3.36123C3.2832 24.3143 3.2832 24.7825 3.2832 25.2507C3.2832 25.7188 3.2832 26.187 3.36123 26.5771H5.93612C9.44733 26.5771 12.2563 29.4641 12.2563 32.8973V35.3161C12.6464 35.3942 13.0366 35.3942 13.4267 35.3942C13.8168 35.3942 14.207 35.3942 14.5971 35.3161V32.8973C14.5971 29.3861 17.4841 26.5771 20.9173 26.5771H23.4922C23.4922 26.187 23.5702 25.7188 23.5702 25.2507ZM13.3491 28.5278C11.5545 28.5278 10.072 27.0453 10.072 25.2507C10.072 23.456 11.5545 21.9735 13.3491 21.9735C15.1437 21.9735 16.6263 23.456 16.6263 25.2507C16.5482 27.0453 15.1437 28.5278 13.3491 28.5278Z" fill="white"/>
<path d="M13.3489 23.6125C12.4126 23.6125 11.6323 24.3928 11.6323 25.3291C11.6323 26.2655 12.4126 27.0457 13.3489 27.0457C14.2852 27.0457 15.0655 26.2655 15.0655 25.3291C14.9875 24.3148 14.2852 23.6125 13.3489 23.6125Z" fill="white"/>
<path d="M16.0791 32.9758V35.0825C19.4343 34.1462 22.1652 31.5713 23.1015 28.1381H20.8387C18.1858 28.2161 16.0791 30.3229 16.0791 32.9758Z" fill="white"/>
<path d="M21.7759 15.5753L20.4494 15.8874C22.7122 17.604 24.2727 20.1008 24.8189 22.9098C24.975 23.6901 25.053 24.4703 25.053 25.2506C25.053 26.0309 24.975 26.8111 24.8189 27.5134C23.7265 32.9753 18.8889 36.9551 13.2709 36.9551C7.65299 36.9551 2.81532 32.9757 1.72294 27.5134C1.56689 26.7331 1.48886 25.9528 1.48886 25.2506C1.48886 24.4703 1.56689 23.6901 1.72294 22.9098C2.26913 20.1008 3.82967 17.604 6.09245 15.8874L4.76599 15.5753C1.95702 17.9941 0.396484 21.5053 0.396484 25.2506C0.396484 32.3511 6.17048 38.047 13.1929 38.047C20.2934 38.047 25.9893 32.273 25.9893 25.2506C26.1454 21.5053 24.5848 18.0721 21.7759 15.5753Z" fill="white"/>
<path d="M5.85848 28.2166H3.5957C4.61005 31.5718 7.341 34.2247 10.6181 35.161V33.0543C10.6181 30.3233 8.5114 28.2166 5.85848 28.2166Z" fill="white"/>
<path d="M21.1518 8.55389L13.5832 11.4409C13.5051 11.4409 13.4271 11.5189 13.2711 11.5189C13.193 11.5189 13.037 11.5189 12.9589 11.4409L5.54639 8.55389V14.1718L13.3491 15.9665L21.1518 14.1718V8.55389Z" fill="white"/>
<path d="M18.3428 16.4342L13.5051 17.6046H13.3491H13.193L8.35535 16.4342C6.01454 17.7607 4.37597 19.8674 3.5957 22.3643H5.54638C6.17059 22.3643 6.79481 22.2862 7.341 22.0521C7.88719 21.8181 8.43337 21.506 8.90154 21.1158C10.15 20.0234 11.7105 19.4773 13.271 19.4773C14.9096 19.4773 16.4702 20.1015 17.6406 21.1158C18.5769 21.8961 19.7473 22.3643 20.9957 22.3643H22.9464C22.3222 19.7894 20.6836 17.6826 18.3428 16.4342Z" fill="white"/>
<path d="M3.43969 11.9086C3.43969 11.5185 3.20561 11.1283 2.81547 10.9723V5.82248L13.3487 9.87989L25.2088 5.2763L13.3487 0.750732L2.11279 5.04222H1.95673C1.48857 5.04222 1.17646 5.35432 1.17646 5.82248V10.9723C0.786327 11.2063 0.552246 11.5185 0.552246 11.9086V14.0153H3.43924L3.43969 11.9086Z" fill="white"/>
</svg>
