<svg width="30" height="34" viewBox="0 0 30 34" fill="none" xmlns="http://www.w3.org/2000/svg">
<path d="M3.02914 14.0146H6.92713C6.57286 13.5894 6.36024 13.0932 6.36024 12.5972C5.86406 12.5972 5.29718 12.4556 4.9429 12.0304C4.1634 11.2509 4.1634 10.0459 4.9429 9.33733C5.7224 8.55783 6.92737 8.55783 7.63592 9.33733C8.06115 9.76256 8.20281 10.2587 8.20281 10.7547C8.69899 10.7547 9.26588 10.8963 9.62016 11.3216C10.329 12.0304 10.3997 13.306 9.62016 14.0146H18.621L7.77771 3.10022L0.478381 10.4002C-0.15946 11.038 -0.15946 12.1011 0.478381 12.7389L1.96668 14.2272C2.32095 14.0855 2.67523 14.0146 3.02974 14.0146H3.02914Z" fill="url(#paint0_linear_1339_510)"/>
<path d="M26.2748 14.0146L12.7386 0.47838C12.1007 -0.15946 11.0377 -0.15946 10.3998 0.47838L9.97461 0.903608L23.1566 14.0146H26.2748Z" fill="url(#paint1_linear_1339_510)"/>
<path d="M27.5502 15.219H3.02918C2.03707 15.219 1.25732 15.9985 1.25732 16.9909V32.228C1.25732 33.2201 2.03683 33.9998 3.02918 33.9998H27.5508C28.5429 33.9998 29.3227 33.2203 29.3227 32.228L29.3224 16.9909C29.3224 15.9987 28.5429 15.219 27.5506 15.219H27.5502ZM8.06084 30.9524H3.87952V28.8263H8.06084V30.9524ZM8.98224 23.3694H3.87952V18.2667H8.98224V23.3694ZM14.2266 30.9524H10.0453V28.8263H14.2266V30.9524ZM20.4635 30.9524H16.2822V28.8263H20.4635V30.9524ZM26.6998 30.9524H22.5184V28.8263H26.6998V30.9524ZM24.5736 23.2983C24.0067 23.2983 23.4396 23.0147 23.0853 22.6605C22.7311 23.0857 22.1639 23.2983 21.597 23.2983C20.463 23.2983 19.5418 22.3769 19.5418 21.2431C19.5418 20.1091 20.4633 19.1879 21.597 19.1879C22.1639 19.1879 22.7311 19.4715 23.0853 19.8258C23.4396 19.4006 24.0067 19.1879 24.5736 19.1879C25.7076 19.1879 26.6288 20.1093 26.6288 21.2431C26.6998 22.3062 25.7786 23.2983 24.5736 23.2983Z" fill="url(#paint2_linear_1339_510)"/>
<defs>
<linearGradient id="paint0_linear_1339_510" x1="9.3105" y1="3.10022" x2="9.3105" y2="14.2272" gradientUnits="userSpaceOnUse">
<stop stop-color="#C8ECFC"/>
<stop offset="1" stop-color="#F5FAD6"/>
</linearGradient>
<linearGradient id="paint1_linear_1339_510" x1="18.1247" y1="0" x2="18.1247" y2="14.0146" gradientUnits="userSpaceOnUse">
<stop stop-color="#C8ECFC"/>
<stop offset="1" stop-color="#F5FAD6"/>
</linearGradient>
<linearGradient id="paint2_linear_1339_510" x1="15.29" y1="15.219" x2="15.29" y2="33.9998" gradientUnits="userSpaceOnUse">
<stop stop-color="#C8ECFC"/>
<stop offset="1" stop-color="#F5FAD6"/>
</linearGradient>
</defs>
</svg>
