<svg width="15" height="11" viewBox="0 0 15 11" fill="none" xmlns="http://www.w3.org/2000/svg">
<path d="M9.85826 1.16237C9.77136 1.0582 9.64471 0.995402 9.50925 0.98933C9.37378 0.983164 9.24191 1.0343 9.146 1.13021C9.05019 1.22612 8.99896 1.35789 9.00513 1.49335C9.01129 1.62891 9.07409 1.75556 9.17826 1.84236L12.6477 5.3157H1.18024C1.01356 5.32462 0.863193 5.41863 0.78237 5.56463C0.70145 5.71054 0.70145 5.88785 0.78237 6.03383C0.863195 6.17983 1.01356 6.27384 1.18024 6.28266H12.6477L9.17292 9.75212C9.08545 9.84376 9.03669 9.96548 9.03669 10.0921C9.03669 10.2188 9.08545 10.3406 9.17292 10.4321C9.26304 10.5225 9.38532 10.5733 9.51291 10.5733C9.64051 10.5733 9.76289 10.5225 9.85291 10.4321L14.1505 6.13452V6.13462C14.2429 6.04563 14.2952 5.92287 14.2952 5.79462C14.2952 5.66626 14.2429 5.5435 14.1505 5.45462L9.85826 1.16237Z" fill="url(#paint0_linear_1311_198)"/>
<defs>
<linearGradient id="paint0_linear_1311_198" x1="7.50843" y1="0.988831" x2="7.50843" y2="10.5733" gradientUnits="userSpaceOnUse">
<stop stop-color="#C8ECFC"/>
<stop offset="1" stop-color="#F5FAD6"/>
</linearGradient>
</defs>
</svg>
