<svg width="35" height="35" viewBox="0 0 35 35" fill="none" xmlns="http://www.w3.org/2000/svg">
<path d="M5.77139 18.226H18.4536V5.57124H20.3863C28.4571 5.57124 35 12.1007 35 20.155C35 28.2093 28.4565 34.74 20.3863 34.74C12.3167 34.74 5.77133 28.2087 5.77133 20.155L5.77139 18.226ZM16.9617 17.0136H0.414062L0.414301 15.0845C0.415734 7.03078 6.95963 0.499512 15.0293 0.499512H16.9619L16.9617 17.0136ZM4.45315 13.1561H13.0963V4.5301C8.71027 5.32545 5.25045 8.7783 4.45315 13.1561ZM30.6699 22.7042C30.6699 21.9014 30.4583 21.2661 30.0348 20.7987C29.6114 20.3313 29.111 19.9905 28.5335 19.776C27.9562 19.5615 27.2275 19.3609 26.3476 19.1739C25.5668 19.0088 25.0004 18.8493 24.6485 18.6955C24.2965 18.5414 24.1205 18.3105 24.1205 18.0026C24.1205 17.6945 24.269 17.4444 24.5659 17.252C24.8628 17.0595 25.3359 16.9632 25.9846 16.9632C26.8862 16.9632 27.8129 17.1891 28.7647 17.6408C28.8034 17.6589 28.8502 17.6821 28.9049 17.7096C28.9113 17.7129 28.9178 17.7158 28.9245 17.7186C29.0738 17.7805 29.245 17.7098 29.3071 17.5603L30.0559 15.7559C30.134 15.5674 30.0547 15.3503 29.8731 15.2569C29.8368 15.2383 29.8044 15.222 29.7757 15.2082C29.4315 15.0427 29.0559 14.9018 28.6491 14.7854C28.0716 14.6206 27.4694 14.5105 26.8425 14.4556V13.3376C26.8425 12.7909 26.3994 12.3478 25.8527 12.3478C25.306 12.3478 24.8628 12.7909 24.8628 13.3376V14.4886C23.5761 14.6426 22.5919 15.0577 21.9097 15.7341C21.2279 16.4105 20.887 17.2216 20.887 18.1674C20.887 18.9704 21.096 19.6083 21.514 20.0812C21.9319 20.5541 22.4323 20.8978 23.0151 21.1123C23.5981 21.3268 24.3239 21.5274 25.1928 21.7144C25.9845 21.8904 26.5592 22.0581 26.9167 22.2176C27.2743 22.3769 27.4529 22.6217 27.4529 22.9516C27.4529 23.5785 26.826 23.8922 25.5723 23.8922C24.9124 23.8922 24.2414 23.7875 23.5596 23.5786C23.1292 23.4467 22.7318 23.2886 22.3673 23.1042C22.3425 23.0916 22.3157 23.0777 22.2871 23.0622C22.2746 23.0557 22.2622 23.0495 22.2496 23.0438C21.9649 22.9172 21.6317 23.0452 21.5048 23.3297L20.9684 24.5346C20.9636 24.5454 20.9586 24.5566 20.9534 24.5685C20.7952 24.9235 20.9443 25.3397 21.2916 25.5139C21.6522 25.6947 22.0616 25.8552 22.5202 25.9954C23.257 26.2208 24.038 26.361 24.8627 26.4162V27.5175C24.8627 28.0642 25.3059 28.5075 25.8526 28.5075C26.3993 28.5075 26.8424 28.0642 26.8424 27.5175V26.35C28.0853 26.163 29.0338 25.737 29.6882 25.0716C30.3426 24.4061 30.6698 23.617 30.6698 22.7042L30.6699 22.7042Z" fill="white"/>
</svg>
