<svg width="25" height="31" viewBox="0 0 25 31" fill="none" xmlns="http://www.w3.org/2000/svg">
<path d="M18.9523 2.60714C18.9523 4.0471 17.7849 5.21428 16.3452 5.21428C14.9052 5.21428 13.7378 4.0471 13.7378 2.60714C13.7378 1.16718 14.9052 0 16.3452 0C17.7849 0 18.9523 1.16718 18.9523 2.60714Z" fill="url(#paint0_linear_1335_490)"/>
<path d="M15.1419 10.1276C15.1419 11.498 14.1727 12.6678 12.8691 12.9688C14.1727 13.1024 15.5095 13.6372 16.1782 14.7736H16.4123C17.0807 13.7039 18.351 13.1357 19.7214 13.0021C18.4179 12.7013 17.482 11.5649 17.482 10.1609C17.482 8.72371 18.5517 7.52041 19.9219 7.28632C19.2199 6.21661 17.7494 5.74866 16.312 5.74866C14.9082 5.74866 13.4375 6.21659 12.7021 7.28632C14.0722 7.48707 15.1419 8.69034 15.1419 10.1276H15.1419Z" fill="url(#paint1_linear_1335_490)"/>
<path d="M10.7631 2.60714C10.7631 4.0471 9.59592 5.21428 8.15597 5.21428C6.71625 5.21428 5.54883 4.0471 5.54883 2.60714C5.54883 1.16718 6.71625 0 8.15597 0C9.59592 0 10.7631 1.16718 10.7631 2.60714Z" fill="url(#paint2_linear_1335_490)"/>
<path d="M7.01954 10.1279C7.01954 11.4984 6.05034 12.6681 4.74677 12.9691C6.05034 13.1027 7.38721 13.6376 8.02234 14.7406H8.22286C8.89129 13.6709 10.1615 13.0694 11.5653 12.9358C10.2618 12.635 9.32588 11.4987 9.32588 10.0946C9.32588 8.65743 10.362 7.48744 11.7325 7.22004C10.9971 6.15032 9.55997 5.68237 8.12258 5.68237C6.71874 5.68237 5.24804 6.15031 4.5127 7.22004C5.95008 7.45389 7.01956 8.65719 7.01956 10.1279L7.01954 10.1279Z" fill="url(#paint3_linear_1335_490)"/>
<path d="M17.8159 10.1275C17.8159 11.5647 18.9523 12.7013 20.3897 12.7347C21.8268 12.7347 22.9968 11.5647 22.9968 10.1275C22.9968 8.69038 21.8268 7.52039 20.3897 7.52039C20.2894 7.52039 20.1892 7.52039 20.0889 7.55373C18.8187 7.7209 17.8159 8.79063 17.8159 10.1275L17.8159 10.1275Z" fill="url(#paint4_linear_1335_490)"/>
<path d="M20.3897 13.2363C18.9858 13.2363 17.5151 13.7043 16.7798 14.7404C17.1141 14.7737 17.4482 14.874 17.749 15.0412C18.7182 15.5091 19.3869 16.5119 19.3869 17.6483C19.3869 19.0188 18.4177 20.1885 17.1141 20.4895C18.5512 20.6231 19.9886 21.2582 20.5569 22.5618H24.4342V16.4785V16.4116C24.4342 14.1723 22.3953 13.2365 20.3897 13.2365V13.2363Z" fill="url(#paint5_linear_1335_490)"/>
<path d="M4.04494 12.7013H4.11186C5.54901 12.7013 6.719 11.5313 6.719 10.0942C6.719 8.75729 5.68289 7.62066 4.37931 7.52039H4.14523C2.70808 7.52039 1.53809 8.69038 1.53809 10.1275C1.53809 11.5314 2.64111 12.6678 4.04495 12.7013H4.04494Z" fill="url(#paint6_linear_1335_490)"/>
<path d="M7.35369 20.456C6.05012 20.1552 5.11422 19.0188 5.11422 17.6147C5.11422 16.4783 5.78266 15.5089 6.71856 15.0076C7.01933 14.8404 7.35369 14.7402 7.68776 14.7068C6.95241 13.6371 5.51526 13.2028 4.07787 13.2028H4.04453C2.07252 13.2028 0 14.1387 0 16.3781V18.818V22.5282H0.0669151H3.87735C4.44554 21.2915 5.8496 20.6231 7.35366 20.4559L7.35369 20.456Z" fill="url(#paint7_linear_1335_490)"/>
<path d="M16.345 15.0412H16.278H16.1778C16.1109 15.0412 16.0775 15.0412 16.0106 15.0745C14.8073 15.3086 13.9048 16.3447 13.9048 17.6147C13.9048 18.885 14.8073 19.9211 16.0106 20.155C16.0775 20.155 16.1109 20.1883 16.1778 20.1883H16.345H16.5121H16.5455H16.6791C18.0495 20.1214 19.1526 18.985 19.1526 17.6145C19.1526 16.2107 18.0495 15.1077 16.6791 15.0408H16.5455H16.5121C16.4116 15.0412 16.3783 15.0412 16.345 15.0412V15.0412Z" fill="url(#paint8_linear_1335_490)"/>
<path d="M20.2893 22.729C20.2559 22.662 20.2559 22.6287 20.2223 22.5618C19.5872 21.3251 18.1165 20.7903 16.6125 20.757H16.4453H16.2781H16.1109H15.9438C14.5733 20.8572 13.2364 21.4254 12.6682 22.5618C12.6348 22.6287 12.6013 22.662 12.6013 22.729C12.5679 22.7959 12.5679 22.8292 12.5344 22.8961C12.4341 23.1969 12.3672 23.5646 12.3672 23.9322V23.9992V26.3724V30.0826H12.4341H20.5229L20.5234 23.9987V23.9318C20.5234 23.5307 20.4565 23.1964 20.3562 22.8956C20.3226 22.829 20.3226 22.7621 20.2893 22.7287L20.2893 22.729Z" fill="url(#paint9_linear_1335_490)"/>
<path d="M8.08885 15.0413H8.02194H7.98859H7.855C6.48452 15.1082 5.41504 16.2446 5.41504 17.6151C5.41504 18.9856 6.48476 20.0886 7.82163 20.1889H7.9888H8.02214H8.15574H8.18908H8.35626C8.42317 20.1889 8.45651 20.1889 8.52343 20.1555C9.72672 19.9214 10.6293 18.8853 10.6293 17.6153C10.6293 16.3117 9.69336 15.2756 8.45676 15.0751C8.38984 15.0751 8.3565 15.0417 8.28958 15.0417H8.22267C8.18909 15.0413 8.12218 15.0413 8.08884 15.0413L8.08885 15.0413Z" fill="url(#paint10_linear_1335_490)"/>
<path d="M11.7992 22.7292C11.7658 22.6623 11.7658 22.629 11.7322 22.562C11.1641 21.4257 9.86052 20.8908 8.45667 20.7905H8.2895H8.12232H8.08898H7.92181H7.75464C6.28389 20.8239 4.77983 21.3587 4.14475 22.5954C4.11141 22.6623 4.07784 22.6956 4.07784 22.7625C4.0445 22.8294 4.0445 22.8628 4.01092 22.9297C3.91067 23.2305 3.84375 23.5981 3.84375 23.9658V26.4058V30.1159H3.91067H11.9995L11.9997 26.3724V23.9322C11.9997 23.5312 11.9328 23.1969 11.8325 22.8961C11.8659 22.8294 11.8325 22.7625 11.7992 22.7292L11.7992 22.7292Z" fill="url(#paint11_linear_1335_490)"/>
<defs>
<linearGradient id="paint0_linear_1335_490" x1="16.3451" y1="0" x2="16.3451" y2="5.21428" gradientUnits="userSpaceOnUse">
<stop stop-color="#C8ECFC"/>
<stop offset="1" stop-color="#F5FAD6"/>
</linearGradient>
<linearGradient id="paint1_linear_1335_490" x1="16.312" y1="5.74866" x2="16.312" y2="14.7736" gradientUnits="userSpaceOnUse">
<stop stop-color="#C8ECFC"/>
<stop offset="1" stop-color="#F5FAD6"/>
</linearGradient>
<linearGradient id="paint2_linear_1335_490" x1="8.15597" y1="0" x2="8.15597" y2="5.21428" gradientUnits="userSpaceOnUse">
<stop stop-color="#C8ECFC"/>
<stop offset="1" stop-color="#F5FAD6"/>
</linearGradient>
<linearGradient id="paint3_linear_1335_490" x1="8.12258" y1="5.68237" x2="8.12258" y2="14.7406" gradientUnits="userSpaceOnUse">
<stop stop-color="#C8ECFC"/>
<stop offset="1" stop-color="#F5FAD6"/>
</linearGradient>
<linearGradient id="paint4_linear_1335_490" x1="20.4064" y1="7.52039" x2="20.4064" y2="12.7347" gradientUnits="userSpaceOnUse">
<stop stop-color="#C8ECFC"/>
<stop offset="1" stop-color="#F5FAD6"/>
</linearGradient>
<linearGradient id="paint5_linear_1335_490" x1="20.607" y1="13.2363" x2="20.607" y2="22.5618" gradientUnits="userSpaceOnUse">
<stop stop-color="#C8ECFC"/>
<stop offset="1" stop-color="#F5FAD6"/>
</linearGradient>
<linearGradient id="paint6_linear_1335_490" x1="4.12854" y1="7.52039" x2="4.12854" y2="12.7013" gradientUnits="userSpaceOnUse">
<stop stop-color="#C8ECFC"/>
<stop offset="1" stop-color="#F5FAD6"/>
</linearGradient>
<linearGradient id="paint7_linear_1335_490" x1="3.84388" y1="13.2028" x2="3.84388" y2="22.5282" gradientUnits="userSpaceOnUse">
<stop stop-color="#C8ECFC"/>
<stop offset="1" stop-color="#F5FAD6"/>
</linearGradient>
<linearGradient id="paint8_linear_1335_490" x1="16.5287" y1="15.0408" x2="16.5287" y2="20.1883" gradientUnits="userSpaceOnUse">
<stop stop-color="#C8ECFC"/>
<stop offset="1" stop-color="#F5FAD6"/>
</linearGradient>
<linearGradient id="paint9_linear_1335_490" x1="16.4453" y1="20.757" x2="16.4453" y2="30.0826" gradientUnits="userSpaceOnUse">
<stop stop-color="#C8ECFC"/>
<stop offset="1" stop-color="#F5FAD6"/>
</linearGradient>
<linearGradient id="paint10_linear_1335_490" x1="8.02215" y1="15.0413" x2="8.02215" y2="20.1889" gradientUnits="userSpaceOnUse">
<stop stop-color="#C8ECFC"/>
<stop offset="1" stop-color="#F5FAD6"/>
</linearGradient>
<linearGradient id="paint11_linear_1335_490" x1="7.92174" y1="20.7905" x2="7.92174" y2="30.1159" gradientUnits="userSpaceOnUse">
<stop stop-color="#C8ECFC"/>
<stop offset="1" stop-color="#F5FAD6"/>
</linearGradient>
</defs>
</svg>
