<svg width="35" height="33" viewBox="0 0 35 33" fill="none" xmlns="http://www.w3.org/2000/svg">
<path d="M7.58776 1.75102H25.098C25.8323 1.71324 26.3771 2.27268 26.8433 2.77242C26.7674 1.22565 25.4951 0 23.9306 0H2.91837C1.30756 0 0 1.30756 0 2.91837V26.2653C0.01824 28.1792 1.66037 29.3789 3.50204 29.1837V5.83674C3.50204 3.58389 5.33491 1.75102 7.58776 1.75102Z" fill="url(#paint0_linear_1339_518)"/>
<path d="M18.0936 7.58752C13.9096 7.58752 10.5059 10.9913 10.5059 15.1753C10.9228 25.2418 25.2658 25.2385 25.6814 15.1753C25.6814 10.9913 22.2773 7.58752 18.0936 7.58752ZM22.129 13.9576L18.0433 18.0434C17.8226 18.2641 17.5297 18.3855 17.2181 18.3855C16.9062 18.3855 16.6133 18.2641 16.3929 18.0434L14.0582 15.7087C12.9909 14.6075 14.6067 12.9896 15.7089 14.058L17.2181 15.5672L20.4786 12.3067C21.5806 11.2389 23.1971 12.856 22.1293 13.9574L22.129 13.9576Z" fill="url(#paint1_linear_1339_518)"/>
<path d="M25.6997 30.9342H7.5878C6.62471 30.9342 5.83678 30.1463 5.83678 29.1832V5.83624C5.83678 4.87315 6.62471 4.08522 7.5878 4.08522H24.5143V7.00359C24.5143 8.6144 25.8219 9.92196 27.4327 9.92196H30.3511V14.7401C30.7591 14.8417 31.1513 14.9949 31.5184 15.1974V9.33852C31.5177 9.18218 31.4593 9.03365 31.3491 8.92422L25.5123 3.08748C25.4029 2.97726 25.2541 2.91915 25.098 2.91811L7.5878 2.91785C5.977 2.91785 4.66943 4.22541 4.66943 5.83622V29.1832C4.66943 30.794 5.977 32.1015 7.5878 32.1015H28.6001C29.2523 32.1015 29.8485 31.8798 30.3344 31.5179H27.4327C26.7816 31.5179 26.1859 31.2961 25.6997 30.9342V30.9342Z" fill="url(#paint2_linear_1339_518)"/>
<path d="M33.2699 25.0976H32.1799L32.8308 19.8901C33.1456 17.7665 31.331 15.7098 29.1839 15.7588C27.0373 15.7101 25.2219 17.7662 25.5372 19.8901L26.1881 25.0976H25.0982C22.7898 25.1614 22.7906 28.536 25.0982 28.5996H25.6818C25.6818 29.5653 26.4672 30.3506 27.4329 30.3506H30.9349C31.9006 30.3506 32.6859 29.5653 32.6859 28.5996H33.2696C35.578 28.5358 35.577 25.1609 33.2696 25.0976H33.2699ZM33.2699 27.4323H25.0985C24.3337 27.4182 24.3303 26.2798 25.0985 26.2649H33.2699C34.0341 26.2787 34.0386 27.4174 33.2699 27.4323Z" fill="url(#paint3_linear_1339_518)"/>
<path d="M23.3468 23.9303H12.257C11.9347 23.9303 11.6733 24.1914 11.6733 24.514C11.6733 24.8366 11.9347 25.0976 12.257 25.0976H23.3468C24.1168 25.0846 24.1105 23.9418 23.3468 23.9303Z" fill="url(#paint4_linear_1339_518)"/>
<path d="M14.008 26.2649C13.2393 26.2777 13.2424 27.42 14.008 27.4322H21.5957C22.3649 27.4195 22.3608 26.2769 21.5957 26.2649H14.008Z" fill="url(#paint5_linear_1339_518)"/>
<defs>
<linearGradient id="paint0_linear_1339_518" x1="13.4216" y1="0" x2="13.4216" y2="29.2044" gradientUnits="userSpaceOnUse">
<stop stop-color="#C8ECFC"/>
<stop offset="1" stop-color="#F5FAD6"/>
</linearGradient>
<linearGradient id="paint1_linear_1339_518" x1="18.0936" y1="7.58752" x2="18.0936" y2="22.7239" gradientUnits="userSpaceOnUse">
<stop stop-color="#C8ECFC"/>
<stop offset="1" stop-color="#F5FAD6"/>
</linearGradient>
<linearGradient id="paint2_linear_1339_518" x1="18.0939" y1="2.91785" x2="18.0939" y2="32.1015" gradientUnits="userSpaceOnUse">
<stop stop-color="#C8ECFC"/>
<stop offset="1" stop-color="#F5FAD6"/>
</linearGradient>
<linearGradient id="paint3_linear_1339_518" x1="29.1838" y1="15.7579" x2="29.1838" y2="30.3506" gradientUnits="userSpaceOnUse">
<stop stop-color="#C8ECFC"/>
<stop offset="1" stop-color="#F5FAD6"/>
</linearGradient>
<linearGradient id="paint4_linear_1339_518" x1="17.7976" y1="23.9303" x2="17.7976" y2="25.0976" gradientUnits="userSpaceOnUse">
<stop stop-color="#C8ECFC"/>
<stop offset="1" stop-color="#F5FAD6"/>
</linearGradient>
<linearGradient id="paint5_linear_1339_518" x1="17.8018" y1="26.2649" x2="17.8018" y2="27.4322" gradientUnits="userSpaceOnUse">
<stop stop-color="#C8ECFC"/>
<stop offset="1" stop-color="#F5FAD6"/>
</linearGradient>
</defs>
</svg>
