<svg width="45" height="28" viewBox="0 0 45 28" fill="none" xmlns="http://www.w3.org/2000/svg">
<path fill-rule="evenodd" clip-rule="evenodd" d="M17.3603 2.23961V4.47982C17.3603 5.37435 18.0595 6.10562 18.9415 6.15682L19.0399 6.15995H25.7603C26.6548 6.15995 27.3861 5.46034 27.4373 4.57874L27.44 4.47991V2.23971H43.6801C44.2984 2.23971 44.8 2.74127 44.8 3.36001V26.8801C44.8 27.4985 44.2984 28 43.6801 28H1.1199C0.501542 28 0 27.4984 0 26.8801V3.36001C0 2.74126 0.501562 2.23971 1.1199 2.23971L17.3603 2.23961ZM14.0001 7.27983C9.36096 7.27983 5.60005 11.0403 5.60005 15.6799C5.60005 20.319 9.36096 24.0799 14.0001 24.0799C18.6392 24.0799 22.4001 20.319 22.4001 15.6799C22.4001 11.0403 18.6392 7.27983 14.0001 7.27983ZM14.013 17.9199L14.1349 17.9222C16.0138 17.9859 17.5576 19.3714 17.8646 21.1781C16.7716 21.948 15.4388 22.4 14.0001 22.4C12.5613 22.4 11.2285 21.9481 10.1355 21.1785C10.4426 19.3715 11.9863 17.9859 13.8653 17.9223L13.9867 17.9196L14 17.92H14.0129L14.013 17.9199ZM38.3601 20.1601H27.72C27.2563 20.1601 26.8802 20.5359 26.8802 20.9999C26.8802 21.464 27.2563 21.8398 27.72 21.8398H38.3601C38.8237 21.8398 39.1999 21.464 39.1999 20.9999C39.1999 20.5359 38.8237 20.1601 38.3601 20.1601ZM14 8.96003C17.7113 8.96003 20.7199 11.9686 20.7199 15.68C20.7199 17.2691 20.1683 18.7292 19.2469 19.8788C18.7477 18.5429 17.7524 17.4487 16.486 16.8206C17.029 16.2237 17.3602 15.4304 17.3602 14.5601C17.3602 12.7041 15.8559 11.1998 14 11.1998C12.1441 11.1998 10.6398 12.7041 10.6398 14.5601C10.6398 15.4304 10.971 16.2238 11.5144 16.8203C10.2476 17.4488 9.25268 18.543 8.75348 19.8797C7.8316 18.7293 7.28008 17.2692 7.28008 15.6801C7.28008 11.9687 10.2887 8.96013 14 8.96013L14 8.96003ZM38.3601 15.1199H27.72C27.2563 15.1199 26.8802 15.496 26.8802 15.9601C26.8802 16.4238 27.2563 16.7999 27.72 16.7999H38.3601C38.8237 16.7999 39.1999 16.4238 39.1999 15.9601C39.1999 15.496 38.8237 15.1199 38.3601 15.1199ZM14 12.88C14.9277 12.88 15.6801 13.632 15.6801 14.5602C15.6801 15.4879 14.9277 16.2399 14 16.2399L14.0117 16.2395L13.9883 16.2399C13.0656 16.2336 12.3198 15.484 12.3198 14.5602C12.3198 13.632 13.0722 12.88 14 12.88H14ZM38.3601 10.08H27.72C27.2563 10.08 26.8802 10.4562 26.8802 10.9199C26.8802 11.3839 27.2563 11.7601 27.72 11.7601H38.3601C38.8237 11.7601 39.1999 11.3839 39.1999 10.9199C39.1999 10.4562 38.8237 10.08 38.3601 10.08ZM25.2 0C25.5094 0 25.7602 0.250782 25.7602 0.560163V3.91997C25.7602 4.22936 25.5094 4.48014 25.2 4.48014H19.6C19.2906 4.48014 19.0398 4.22936 19.0398 3.91997V0.560163C19.0398 0.250782 19.2906 0 19.6 0H25.2Z" fill="white"/>
</svg>
