<svg width="27" height="38" viewBox="0 0 27 38" fill="none" xmlns="http://www.w3.org/2000/svg">
<path d="M14.9971 23.4165C15.0869 22.8209 15.1349 22.2193 15.1408 21.6171C15.1371 21.0143 15.0891 20.413 14.9971 19.8174H13.3414H11.6857C11.5941 20.413 11.5458 21.0143 11.542 21.6171C11.5473 22.2197 11.5953 22.8209 11.6857 23.4165H13.3414H14.9971Z" fill="white"/>
<path d="M14.6014 18.0178C14.298 17.0167 13.8749 16.0561 13.3417 15.1564C12.8117 16.0581 12.389 17.0184 12.082 18.0178C12.9212 18.063 13.7622 18.063 14.6014 18.0178H14.6014Z" fill="white"/>
<path d="M20.036 24.2265C20.7085 22.5519 20.7085 20.6825 20.036 19.0079C18.9614 19.2593 17.8741 19.4514 16.7788 19.5838C16.8802 20.2569 16.9345 20.9364 16.9407 21.6173C16.9398 22.2983 16.8858 22.9781 16.7788 23.6506C17.8741 23.783 18.9614 23.9754 20.036 24.2265Z" fill="white"/>
<path d="M12.082 25.2162C12.377 26.2261 12.8004 27.1936 13.3417 28.0955C13.8831 27.1936 14.3064 26.2261 14.6014 25.2162C13.7623 25.171 12.9212 25.171 12.0821 25.2162H12.082Z" fill="white"/>
<path d="M16.4185 17.8202C17.3182 17.7122 18.2179 17.5682 19.118 17.3702H19.1177C18.1405 16.0415 16.7367 15.0884 15.1406 14.671C15.6857 15.6683 16.1144 16.7249 16.4185 17.8201L16.4185 17.8202Z" fill="white"/>
<path d="M9.74219 21.6173C9.74847 20.9363 9.80276 20.2569 9.90412 19.5838C8.80823 19.4542 7.72085 19.2621 6.64697 19.0079C5.97445 20.6825 5.97445 22.5519 6.64697 24.2265C7.72085 23.9723 8.80823 23.7802 9.90412 23.6506C9.79711 22.9781 9.74313 22.2983 9.74219 21.6173Z" fill="white"/>
<path d="M10.2637 17.8201C10.5678 16.7249 10.9964 15.6683 11.5415 14.671C9.94544 15.0883 8.54169 16.0415 7.56445 17.3702C8.45605 17.5654 9.35696 17.7157 10.2637 17.8202V17.8201Z" fill="white"/>
<path d="M16.4185 25.4138C16.1185 26.5103 15.6895 27.5676 15.1406 28.563C16.7367 28.1456 18.1405 27.1925 19.1177 25.8638C18.218 25.6658 17.3183 25.5217 16.4185 25.4138V25.4138Z" fill="white"/>
<path d="M10.2637 25.4138C9.35672 25.517 8.45573 25.667 7.56445 25.8638C8.54169 27.1925 9.94544 28.1455 11.5415 28.563C10.9926 27.5675 10.5636 26.5103 10.2637 25.4138V25.4138Z" fill="white"/>
<path d="M22.3394 3.62143V0.921904C22.336 0.643548 22.2111 0.380561 21.9974 0.202001C21.7736 0.0272011 21.4833 -0.0387004 21.2056 0.02218L7.52881 3.62141L22.3394 3.62143Z" fill="white"/>
<path d="M25.9383 5.4211H0.20438L0.0964217 5.54694C0.0562526 5.58805 0.0254988 5.63701 0.00635496 5.69099C-0.00117675 5.73869 -0.00117675 5.78733 0.00635496 5.83503C-0.00211832 5.90062 -0.00211832 5.96715 0.00635496 6.03305V36.6259V36.6256C0.00635496 36.8644 0.101129 37.0931 0.26996 37.262C0.438799 37.4308 0.66757 37.5256 0.906078 37.5256H26.1002C26.3387 37.5256 26.5678 37.4308 26.7363 37.262C26.9051 37.0931 26.9999 36.8644 26.9999 36.6256V6.32115C27.0043 6.05158 26.8875 5.79424 26.682 5.62007C26.4764 5.4459 26.2034 5.37278 25.9382 5.42142L25.9383 5.4211ZM21.4394 25.4864C20.4546 27.4506 18.7851 28.9864 16.7459 29.8046C14.7063 30.6224 12.4384 30.666 10.369 29.927C8.29966 29.1879 6.57271 27.717 5.51297 25.792C5.41976 25.6894 5.35198 25.5661 5.31527 25.4324H5.24309C4.02042 22.9977 4.02042 20.1284 5.24309 17.6942C5.2798 17.5602 5.34759 17.4369 5.44111 17.3342C6.48173 15.4444 8.16634 13.9914 10.1886 13.2398C12.2109 12.4882 14.4355 12.4882 16.4578 13.2398C18.4801 13.9914 20.165 15.4444 21.2053 17.3342C21.2988 17.4369 21.3666 17.5602 21.4033 17.6942C22.6263 20.1285 22.6263 22.9978 21.4033 25.4324L21.4394 25.4864Z" fill="white"/>
</svg>
