<svg width="31" height="34" viewBox="0 0 31 34" fill="none" xmlns="http://www.w3.org/2000/svg">
<path d="M28.8363 29.8506H27.5612L27.561 1.44219C27.561 0.948668 27.3088 0.489781 26.8926 0.225088C26.4764 -0.0396054 25.9535 -0.0729794 25.5069 0.13627L3.54719 10.4298C3.29905 10.546 3.0893 10.7306 2.94227 10.962C2.79524 11.1931 2.71721 11.4615 2.71721 11.7355V29.8504H1.44192C1.05955 29.8504 0.692736 30.0022 0.422263 30.2726C0.151789 30.5431 0 30.9099 0 31.2925V32.5581V32.5578C0 32.9404 0.151795 33.3073 0.422263 33.5777C0.69273 33.8479 1.05955 34 1.44192 34H28.8361C29.2185 34 29.5853 33.8479 29.8558 33.5777C30.1263 33.3073 30.2781 32.9404 30.2781 32.5578V31.2923V31.2925C30.2781 30.9099 30.1263 30.5431 29.8558 30.2726C29.5853 30.0022 29.2185 29.8504 28.8361 29.8504L28.8363 29.8506ZM10.1466 29.7515H6.69646V26.3016H10.1466V29.7515ZM10.1466 22.9097L6.69646 22.9099V19.4598H10.1466V22.9097ZM10.1466 16.0679L6.69646 16.0681V12.618H10.1466V16.0679ZM16.8651 29.7515L13.4142 29.7517V26.3019H16.8651V29.7515ZM16.8651 22.9097L13.4142 22.9102V19.4601H16.8651V22.9097ZM16.8651 16.0679L13.4142 16.0684V12.6182H16.8651V16.0679ZM23.5829 29.7515L20.1328 29.752V26.3021H23.5829V29.7515ZM23.5829 22.9097L20.1328 22.9104V19.4603H23.5829V22.9097ZM23.5829 16.0679L20.1328 16.0686V12.6185H23.5829V16.0679Z" fill="url(#paint0_linear_1339_526)"/>
<defs>
<linearGradient id="paint0_linear_1339_526" x1="15.139" y1="0" x2="15.139" y2="34" gradientUnits="userSpaceOnUse">
<stop stop-color="#C8ECFC"/>
<stop offset="1" stop-color="#F5FAD6"/>
</linearGradient>
</defs>
</svg>
