<svg width="31" height="31" viewBox="0 0 31 31" fill="none" xmlns="http://www.w3.org/2000/svg">
<path d="M22.7655 11.8677C20.5817 11.8677 18.4872 12.7353 16.943 14.2794C15.3988 15.8238 14.5312 17.9183 14.5312 20.1019C14.5312 22.2856 15.3988 24.3802 16.943 25.9244C18.4873 27.4686 20.5818 28.3361 22.7655 28.3361C24.9491 28.3361 27.0438 27.4686 28.588 25.9244C30.1322 24.3801 30.9997 22.2856 30.9997 20.1019C30.9973 17.9187 30.1289 15.8258 28.5851 14.2822C27.0414 12.7384 24.9484 11.8701 22.7654 11.8677L22.7655 11.8677ZM22.7655 27.3678C20.8385 27.3678 18.9904 26.6023 17.6278 25.2398C16.2653 23.8773 15.4998 22.0291 15.4998 20.1022C15.4998 18.1752 16.2653 16.3271 17.6278 14.9645C18.9903 13.602 20.8385 12.8365 22.7655 12.8365C24.6924 12.8365 26.5406 13.602 27.9031 14.9645C29.2656 16.327 30.0311 18.1752 30.0311 20.1022C30.029 22.0284 29.2628 23.8753 27.9007 25.2375C26.5387 26.5996 24.6917 27.3657 22.7655 27.3678Z" fill="url(#paint0_linear_1339_514)"/>
<path d="M25.2665 15.1868L25.1015 15.1059C24.701 14.9117 24.2406 14.8821 23.8185 15.0233C23.3966 15.1643 23.0466 15.4653 22.8437 15.8612L19.9119 21.6389C19.9093 21.6439 19.9083 21.6493 19.9059 21.6542C19.8985 21.6705 19.8923 21.6869 19.8869 21.7038C19.8823 21.7174 19.8778 21.731 19.8743 21.7449C19.8706 21.7611 19.8678 21.7773 19.8657 21.7939C19.8635 21.8099 19.8618 21.8257 19.8611 21.8417C19.8609 21.8482 19.8592 21.8545 19.8594 21.8612L19.8769 24.7061C19.878 24.8879 19.9809 25.0538 20.1435 25.1355C20.3064 25.2151 20.4997 25.1993 20.6472 25.0942L22.97 23.3959V23.3956C22.9897 23.3807 23.0081 23.3641 23.0252 23.3461C23.0297 23.3416 23.0349 23.3381 23.0394 23.3334C23.0669 23.3033 23.0905 23.2696 23.1093 23.2335C23.1112 23.23 23.114 23.2276 23.1158 23.2239L26.0322 17.4762H26.0324C26.2379 17.0716 26.2725 16.6017 26.1287 16.1712C25.9846 15.7409 25.6741 15.3862 25.2665 15.1866L25.2665 15.1868ZM22.4683 22.3594L20.9979 21.6389L22.9929 17.7074L24.4634 18.4277L22.4683 22.3594Z" fill="url(#paint1_linear_1339_514)"/>
<path d="M1.937 31.0002H21.3121C21.7859 30.9993 22.2428 30.8253 22.597 30.5109C22.9512 30.1964 23.1783 29.7631 23.2351 29.293C23.0794 29.3008 22.9229 29.3049 22.7652 29.3049C21.3478 29.3047 19.9494 28.9766 18.6796 28.3465C17.41 27.7162 16.3031 26.8011 15.4457 25.6721H4.23803C3.97054 25.6721 3.75365 25.4552 3.75365 25.1877C3.75365 24.9202 3.97054 24.7034 4.23803 24.7034H14.7997C14.8021 24.7075 14.8049 24.7114 14.8073 24.7155C14.1153 23.5274 13.7005 22.1989 13.5935 20.8283H4.23807C3.97058 20.8283 3.75369 20.6114 3.75369 20.3439C3.75369 20.0764 3.97058 19.8596 4.23807 19.8596H13.5686C13.6023 18.5122 13.9334 17.189 14.5386 15.9845H4.23823C3.97075 15.9845 3.75386 15.7676 3.75386 15.5002C3.75386 15.2327 3.97075 15.0158 4.23823 15.0158H15.1005L15.0985 15.019C15.9371 13.7527 17.0763 12.7137 18.4142 11.9947C19.7521 11.2759 21.2469 10.8992 22.7658 10.8985C22.9282 10.8985 23.0897 10.9029 23.2501 10.9115V1.93751C23.2495 1.42394 23.0452 0.931334 22.6818 0.5683C22.3188 0.205016 21.8262 0.00066429 21.3126 0H1.93751C1.42394 0.000648734 0.931334 0.204994 0.5683 0.5683C0.205016 0.931368 0.00066429 1.42396 0 1.93751V29.0627C0.000648735 29.5763 0.204994 30.0689 0.5683 30.4319C0.931368 30.7952 1.42396 30.9995 1.93751 31.0002L1.937 31.0002ZM19.1321 11.1407H4.23766C3.97017 11.1407 3.75328 10.9238 3.75328 10.6563C3.75328 10.3888 3.97017 10.172 4.23766 10.172H19.1321C19.3996 10.172 19.6165 10.3888 19.6165 10.6563C19.6165 10.9238 19.3996 11.1407 19.1321 11.1407ZM4.11642 5.32817H19.0109C19.2784 5.32817 19.4953 5.54506 19.4953 5.81255C19.4953 6.08004 19.2784 6.29693 19.0109 6.29693H4.11642C3.84894 6.29693 3.63205 6.08004 3.63205 5.81255C3.63205 5.54506 3.84894 5.32817 4.11642 5.32817Z" fill="url(#paint2_linear_1339_514)"/>
<defs>
<linearGradient id="paint0_linear_1339_514" x1="22.7655" y1="11.8677" x2="22.7655" y2="28.3361" gradientUnits="userSpaceOnUse">
<stop stop-color="#C8ECFC"/>
<stop offset="1" stop-color="#F5FAD6"/>
</linearGradient>
<linearGradient id="paint1_linear_1339_514" x1="23.0377" y1="14.9353" x2="23.0377" y2="25.1858" gradientUnits="userSpaceOnUse">
<stop stop-color="#C8ECFC"/>
<stop offset="1" stop-color="#F5FAD6"/>
</linearGradient>
<linearGradient id="paint2_linear_1339_514" x1="11.6251" y1="0" x2="11.6251" y2="31.0002" gradientUnits="userSpaceOnUse">
<stop stop-color="#C8ECFC"/>
<stop offset="1" stop-color="#F5FAD6"/>
</linearGradient>
</defs>
</svg>
