<svg width="39" height="30" viewBox="0 0 39 30" fill="none" xmlns="http://www.w3.org/2000/svg">
<path d="M24.9844 7.83715e-05H1.82812C0.816475 7.83715e-05 0 0.816545 0 1.8282V23.7657C0 24.101 0.267959 24.3751 0.609375 24.3751H1.58429C1.60265 24.2958 1.62679 24.2166 1.6574 24.1374C2.3035 22.2848 4.0888 21.0235 6.09373 21.0235C8.09257 21.0235 9.88396 22.2909 10.5423 24.174C10.5665 24.241 10.591 24.308 10.6032 24.375H26.2032C26.5385 24.375 26.8126 24.1009 26.8126 23.7656V1.82812C26.8126 0.816475 25.99 0 24.9845 0L24.9844 7.83715e-05ZM13.4001 21.3282C8.36053 21.3282 4.25953 17.2333 4.25953 12.1876C4.25953 7.14796 8.36053 3.04695 13.4001 3.04695C18.4398 3.04695 22.5408 7.14796 22.5408 12.1876C22.5408 17.2333 18.4398 21.3282 13.4001 21.3282Z" fill="#3B414A"/>
<path d="M33.0099 4.875H28.0312V14.0156H39V10.8651C39 7.56243 36.3126 4.875 33.0099 4.875ZM32.8828 12.7765C32.7637 12.8955 32.6076 12.955 32.4519 12.955C32.2958 12.955 32.1401 12.8955 32.0211 12.7765L29.2687 10.0241C29.0307 9.78609 29.0307 9.40047 29.2687 9.16244C29.5067 8.92441 29.8923 8.9244 30.1304 9.16244L32.8828 11.9148C33.1208 12.1528 33.1208 12.5385 32.8828 12.7765ZM35.7548 12.6017C35.6358 12.7207 35.4797 12.7802 35.324 12.7802C35.1679 12.7802 35.0122 12.7207 34.8931 12.6017L30.0531 7.76171C29.8151 7.52367 29.8151 7.13805 30.0531 6.90002C30.2912 6.66198 30.6768 6.66198 30.9148 6.90002L35.7548 11.74C35.9929 11.9781 35.9929 12.3637 35.7548 12.6017Z" fill="#3B414A"/>
<path d="M28.0312 23.7232C28.7807 22.0961 30.4443 21.0235 32.2969 21.0235C34.2957 21.0235 36.0871 22.2909 36.7455 24.174C36.7577 24.2046 36.7638 24.2288 36.77 24.2594C38.0554 23.9057 39 22.7237 39 21.3281V15.2344H28.0313L28.0312 23.7232ZM33.5133 16.4542H35.3414C35.6784 16.4542 35.9508 16.7266 35.9508 17.0636C35.9508 17.4006 35.6784 17.673 35.3414 17.673H33.5133C33.1763 17.673 32.9039 17.4006 32.9039 17.0636C32.9039 16.7269 33.1763 16.4542 33.5133 16.4542Z" fill="#3B414A"/>
<path d="M6.09378 22.2422C4.60708 22.2422 3.28056 23.1784 2.79524 24.5698C2.65479 24.9401 2.58984 25.3356 2.58984 25.7461C2.58984 27.6782 4.16159 29.25 6.09375 29.25C8.0259 29.25 9.59765 27.6782 9.59765 25.7461C9.59765 25.3357 9.5276 24.9402 9.39226 24.575C8.9019 23.1784 7.57536 22.2422 6.09371 22.2422H6.09378Z" fill="#3B414A"/>
<path d="M32.2969 22.2422C30.8102 22.2422 29.4837 23.1784 28.9984 24.5698C28.8579 24.9401 28.793 25.3356 28.793 25.7461C28.793 27.6782 30.3647 29.25 32.2969 29.25C34.229 29.25 35.8008 27.6782 35.8008 25.7461C35.8008 25.3357 35.7307 24.9402 35.5954 24.575C35.105 23.1784 33.7785 22.2422 32.2968 22.2422H32.2969Z" fill="#3B414A"/>
<path d="M15.5449 14.1948L14.0126 15.7268V9.14136C14.0126 8.80436 13.7402 8.53198 13.4032 8.53198C13.0662 8.53198 12.7939 8.80436 12.7939 9.14136V15.7265L11.2619 14.1946C11.0239 13.9565 10.6382 13.9565 10.4002 14.1946C10.1622 14.4326 10.1622 14.8182 10.4002 15.0562L12.9713 17.6274C13.0278 17.6838 13.0951 17.7287 13.1703 17.7596C13.2447 17.7906 13.3236 17.8066 13.4029 17.8066C13.4821 17.8066 13.561 17.7906 13.6355 17.7596C13.7106 17.7287 13.7779 17.6838 13.8344 17.6274L16.4062 15.0562C16.6443 14.8182 16.6443 14.4326 16.4062 14.1946C16.1685 13.9569 15.7829 13.9569 15.5449 14.1949L15.5449 14.1948Z" fill="#3B414A"/>
</svg>
